<svg class="einfachklettern_horizontal.svg" xmlns="http://www.w3.org/2000/svg" viewBox="0 0 1335.12 408.19">
  <title>Einfach Klettern Logo</title>
  <path d="M563.86,190.71H490.11V66.49h73.75V93.43H523.67V113h37.21V139.9H523.67v23.45h40.19Z"/>
  <path d="M590.81,190.71V66.49h33.73V190.71Z"/>
  <path d="M772.54,190.71h-44L683.16,103.2h-.76Q684,123.84,684,134.72v56H654.27V66.49h43.84l45.2,86.32h.51q-1.19-18.76-1.19-30.16V66.49h29.91Z"/>
  <path d="M835.41,190.71h-33V66.49h73.41V93.43H835.41v23.7h37.22v26.93H835.41Z"/>
  <path d="M970.79,190.71l-6.12-23.28H924.31L918,190.71H881.15L921.68,66h44.77l41,124.73ZM957.7,139.9l-5.35-20.39q-1.87-6.8-4.55-17.59t-3.52-15.46q-.76,4.33-3,14.27t-10,39.17Z"/>
  <path d="M1075.51,92.24a21.39,21.39,0,0,0-18.69,9.81q-6.72,9.81-6.71,27.06,0,35.85,27.27,35.85a55.81,55.81,0,0,0,16-2.29,160.94,160.94,0,0,0,15.55-5.52v28.37q-15.56,6.89-35.17,6.89-28.12,0-43.12-16.32t-15-47.15q0-19.29,7.27-33.9a52,52,0,0,1,20.9-22.47q13.63-7.86,32.07-7.86a88.45,88.45,0,0,1,38.49,8.75l-10.28,26.42a115.55,115.55,0,0,0-13.77-5.43A47.86,47.86,0,0,0,1075.51,92.24Z"/>
  <path d="M1241.53,190.71h-33.72V140.07h-39v50.64h-33.73V66.49h33.73v46.05h39V66.49h33.72Z"/>
  <path d="M596.23,343.48h-37.9L533.78,296l-9.94,5.94v41.55H490.11V219.27h33.73v54a146.59,146.59,0,0,1,10.28-15.89l26.08-38.06h36.71l-39.17,55.65Z"/>
  <path d="M608.81,343.48V219.27h33.56v97.11h47.84v27.1Z"/>
  <path d="M779.08,343.48H705.34V219.27h73.74V246.2H738.9v19.54h37.21v26.93H738.9v23.45h40.18Z"/>
  <path d="M854.92,343.48H821.36V246.71H791V219.27h94.14v27.44H854.92Z"/>
  <path d="M959.2,343.48H925.64V246.71H895.31V219.27h94.14v27.44H959.2Z"/>
  <path d="M1077.37,343.48h-73.75V219.27h73.75V246.2h-40.19v19.54h37.21v26.93h-37.21v23.45h40.19Z"/>
  <path d="M1132.08,298.28v45.2h-33.56V219.27h40.7q50.64,0,50.64,36.7,0,21.59-21.07,33.39L1205,343.48h-38.06l-26.34-45.2Zm0-25.23h6.29q17.6,0,17.59-15.55,0-12.83-17.25-12.83h-6.63Z"/>
  <path d="M1334.51,343.48h-44L1245.13,256h-.76q1.61,20.64,1.61,31.52v56h-29.73V219.27h43.84l45.2,86.32h.51q-1.2-18.78-1.19-30.16V219.27h29.9Z"/>
  <polygon points="212.47 220.82 170.74 179.09 67.91 281.58 170.74 218.25 212.55 253.22 291.63 180.81 365.54 235.13 301.05 132.24 212.47 220.82"/>
  <polygon points="399.11 251.03 399.11 251.03 399.11 251.03 399.11 251.03"/>
  <path d="M404.61,204.09c0-111.56-90.44-202-202-202s-202,90.44-202,202a201.07,201.07,0,0,0,22.91,93.5L170.76,150.83l41.71,41.71,92.19-92.2L399.11,251A202.24,202.24,0,0,0,404.61,204.09Z"/>
  <path d="M196,355.81l-41.73-41.73L93.82,374.31a202,202,0,0,0,244.76-20.87l-54-86.21Z"/>
</svg>