<svg class="scarpa-edelrid.svg" xmlns="http://www.w3.org/2000/svg" width="487" height="55" viewBox="0 0 487 55">
<defs>
<clipPath id="clip-path">
<rect x="15" y="15" width="200.88" height="25.14" style="fill:none"/>
</clipPath>
<clipPath id="clip-path-3">
<rect x="271" width="207.5" height="55.26" style="fill:none"/>
</clipPath>
</defs>
<g style="clip-path:url(#clip-path)">
<g style="clip-path:url(#clip-path)">
<path d="M44.76,37.21a10.61,10.61,0,0,1-5.33,2.09,63.5,63.5,0,0,1-8.39.45,60.37,60.37,0,0,1-8.95-.56,16.2,16.2,0,0,1-6.46-2.33l-.23-7.12a18.91,18.91,0,0,0,4.66,2.49A20.71,20.71,0,0,0,25,33.33a61.6,61.6,0,0,0,6.29.27,30.47,30.47,0,0,0,5.16-.3,1.17,1.17,0,0,0,1.1-1.23,1.18,1.18,0,0,0-1.1-1.27,22.51,22.51,0,0,0-2.46-.33l-7.26-.63a41.69,41.69,0,0,1-6.39-1,6.9,6.9,0,0,1-3.54-2,6,6,0,0,1-1.25-4.11,5.84,5.84,0,0,1,1.88-4.7,10.46,10.46,0,0,1,5.14-2.13,54.54,54.54,0,0,1,8.39-.53,56.39,56.39,0,0,1,7.69.47,18.79,18.79,0,0,1,5.92,1.69l.24,6.63a21.31,21.31,0,0,0-4.21-1.75,22.79,22.79,0,0,0-4.28-.77c-1.49-.12-3.34-.18-5.56-.18a22.7,22.7,0,0,0-5.16.37,1,1,0,0,0-.9,1,1,1,0,0,0,.9,1.06,18.73,18.73,0,0,0,2.46.34l7.26.6a39.25,39.25,0,0,1,6.59,1A7.12,7.12,0,0,1,45.54,28a6.4,6.4,0,0,1,1.28,4.28,6,6,0,0,1-2.06,5" style="fill:#1d1d1d"/>
<path d="M78.7,37.26a19.29,19.29,0,0,1-5.86,2,46.07,46.07,0,0,1-7.29.49,36.49,36.49,0,0,1-9.67-1.06A10.52,10.52,0,0,1,50.1,35c-1.33-1.77-2-4.24-2-7.39s.66-5.68,2-7.45a10.34,10.34,0,0,1,5.7-3.7,35.52,35.52,0,0,1,9.38-1,50.09,50.09,0,0,1,7.54.47,16.63,16.63,0,0,1,5.74,2l.27,7.09a15.8,15.8,0,0,0-5.14-2.33A29.53,29.53,0,0,0,67.18,22a36.86,36.86,0,0,0-5.56.32,4.92,4.92,0,0,0-3,1.5,5.37,5.37,0,0,0-1.07,3.71,5.23,5.23,0,0,0,1.1,3.69,5,5,0,0,0,3,1.45,40.29,40.29,0,0,0,5.53.28,42.56,42.56,0,0,0,4.66-.2A15.29,15.29,0,0,0,75.33,32,20.27,20.27,0,0,0,79,30.17Z" style="fill:#1d1d1d"/>
<path d="M106.46,15.92l11,23.3h-9.72l-2.4-5.46h-14L89,39.22H79.3l11-23.3ZM102.73,27.7l-4.36-10L94,27.7Z" style="fill:#1d1d1d"/>
<path d="M146.82,29.3a11.62,11.62,0,0,1-6.27,2.13l8.32,7.79H138.52L127.77,28.14V39.22h-8.66v-23a29.46,29.46,0,0,1,4.5-.62q2.6-.18,8.55-.18a74.15,74.15,0,0,1,8.39.37,12.55,12.55,0,0,1,5.06,1.53c2.17,1.28,3.26,3.45,3.26,6.49q0,3.82-2.05,5.52m-8-7.6a4,4,0,0,0-2.36-.52h-8.72v5.16h8.72a3.86,3.86,0,0,0,2.36-.55,2.43,2.43,0,0,0,.7-2,2.45,2.45,0,0,0-.7-2.08" style="fill:#1d1d1d"/>
<path d="M179.45,28.92a8.8,8.8,0,0,1-4.78,2.48,39.12,39.12,0,0,1-7.95.67H160.1v7.15h-8.66v-23a29.5,29.5,0,0,1,4.49-.62q2.61-.18,8.56-.18a74.15,74.15,0,0,1,8.39.37,12.55,12.55,0,0,1,5.06,1.53,6,6,0,0,1,2.39,2.53,8.68,8.68,0,0,1,.8,4,7.28,7.28,0,0,1-1.68,5.14m-8.32-7.24a4.08,4.08,0,0,0-2.31-.5H160.1v5.16h8.72a3.88,3.88,0,0,0,2.33-.53,2.52,2.52,0,0,0,.66-2,2.52,2.52,0,0,0-.68-2.1" style="fill:#1d1d1d"/>
<path d="M204.46,15.92l11,23.3h-9.72l-2.4-5.46h-14L187,39.22H177.3l11-23.3ZM200.73,27.7l-4.36-10L192,27.7Z" style="fill:#1d1d1d"/>
</g>
</g>
<g style="clip-path:url(#clip-path-3)">
<g style="clip-path:url(#clip-path-3)">
<path d="M435.39,7.86S414,26.17,409,30c.71,3.26,1.47,6.21,4.4,9.51,4.64,5.38,12.21,7.61,15.38,8.09C447.06,49.34,466.7,35.77,476.46,19c.08-.11.23-.42.28-.49.45.57,1,1.15,1.68,2-.1.2-.19.39-.25.53-3.36,6.91-10.34,18-20.4,24.68-4.38,3.37-16.79,11.38-31.64,9.08-18.21-2.84-25.86-17.51-23.63-31.86C404.78,8.26,417.09-1.17,426.1.22c4,.73,6.68,4.53,6.68,4.53l2.61,3.11M421.9,15.49c3.53-3.11,4.3-4.1,4.5-5.48a4.9,4.9,0,0,0-4.52-5.72c-1.57,0-5.16.07-8.75,5.42a30,30,0,0,0-4,10.69,31,31,0,0,0-.52,6.87c.36-.31,8.89-7.89,13.25-11.78" style="fill:#c9d200"/>
<path d="M287.38,18.49H282.2c-3.35,0-7.35.32-9.51,3.71a10.3,10.3,0,0,0-.1,10.87c2.4,3.61,6.34,3.72,8.83,3.83h6V33.06l-4.77,0c-3.47.1-5.64,0-6.4-3.65h6.39V25.56h-6.31c.84-3.37,3-3.44,6.31-3.37h4.78Zm39,0h-5.2c-3.34,0-7.34.32-9.52,3.71a10.34,10.34,0,0,0-.09,10.87c2.4,3.61,6.35,3.72,8.83,3.83h6V33.06l-4.79,0c-3.47.1-5.63,0-6.39-3.65h6.38V25.56h-6.31c.84-3.37,3-3.44,6.31-3.37h4.8v-3.7m25,18.39h-4.78V18.48h4.78c2.41.1,9-.63,9.72,5.13a5.68,5.68,0,0,1,0,1.94,4.34,4.34,0,0,1-.42,1.26c-.59,1.14-1.06,1.31-2.78,2.76l4.36,7.31H356.7l-3.36-7.47s1.09-.91,2.06-1.74c2.11-1.77,1.69-5.62-1.41-5.49H351.4Zm22.8-18.37h5.2c4.37,0,6.53.63,8.46,2.48a9,9,0,0,1,2.65,6.72c0,4.27-2.41,7.69-6.08,8.65a19.09,19.09,0,0,1-5,.53h-5.2V18.51M379,33.11h1.44c2.15,0,3.34-.44,4.11-1.54a6.9,6.9,0,0,0,1-3.86c0-2.54-.87-4.36-2.37-5a6.93,6.93,0,0,0-2.75-.44H379ZM365.3,18.51h4.79V36.89H365.3Zm-30,14.6h8.27v3.78H330.51V18.51h4.79Zm-43.81-14.6h5.18c4.38,0,6.53.63,8.47,2.48a9,9,0,0,1,2.66,6.72c0,4.27-2.42,7.69-6.09,8.65a19.07,19.07,0,0,1-5,.53h-5.18V18.51m4.78,14.6h1.44c2.15,0,3.35-.44,4.11-1.54a6.82,6.82,0,0,0,1-3.86c0-2.54-.88-4.36-2.37-5a6.9,6.9,0,0,0-2.75-.44h-1.44Z"/>
</g>
</g>
<line x1="243.5" y1="0.5" x2="243.5" y2="54.5" style="fill:none;stroke:#ccc;stroke-miterlimit:10"/>
</svg>